<?xml version="1.0" encoding="UTF-8"?>
<!DOCTYPE svg PUBLIC "-//W3C//DTD SVG 1.1//EN" "http://www.w3.org/Graphics/SVG/1.1/DTD/svg11.dtd">
<!-- Creator: CorelDRAW 2017 -->
<svg xmlns="http://www.w3.org/2000/svg" xml:space="preserve" width="256px" height="59px" version="1.1" style="shape-rendering:geometricPrecision; text-rendering:geometricPrecision; image-rendering:optimizeQuality; fill-rule:evenodd; clip-rule:evenodd"
viewBox="0 0 92.62 21.64"
 xmlns:xlink="http://www.w3.org/1999/xlink">
 <defs>
  <style type="text/css">
   <![CDATA[
    .fil1 {fill:#2643AD}
    .fil0 {fill:#E31920}
    .fil3 {fill:#2643AD;fill-rule:nonzero}
    .fil2 {fill:#E31920;fill-rule:nonzero}
   ]]>
  </style>
 </defs>
 <g id="Слой_x0020_1">
  <metadata id="CorelCorpID_0Corel-Layer"/>
  <g id="_2600713112720">
   <g>
    <path class="fil0" d="M4.63 5.86c3.24,-0.7 8.56,-1.18 10.94,-1.44l-4.19 -4.19c-0.31,-0.31 -0.81,-0.31 -1.12,0l-5.63 5.63z"/>
    <path class="fil1" d="M15.14 9.17l-0.05 0.15 0.05 -0.15zm0.31 -3.3l-7.93 1.11c-0.44,0.06 -0.78,0.13 -0.8,0.29l0.41 1.42c-0.74,0 -3.5,-0.1 -4.24,-1.09l-2.66 2.66c-0.31,0.31 -0.31,0.81 0,1.12l10.03 10.03c0.17,0.17 0.41,0.25 0.64,0.22l-0.79 -1.28c-0.31,-0.5 -0.14,-0.9 0.11,-1.19 0.06,-0.06 0.12,-0.12 0.18,-0.18 0.32,-0.28 1.24,-0.88 2.18,-1.22l0.51 -1.69 0.06 -0.21 -0.06 0.2c0.13,0.04 0.42,0.14 0.63,0.24 0.61,0.29 0.51,0.69 0.22,1.18 -0.17,0.28 -0.52,0.75 -0.89,1.17 -0.45,0.51 -0.83,0.9 -1.12,1.29 -0.31,0.43 -0.5,0.86 -0.53,1.44l10.01 -10c0.3,-0.31 0.3,-0.81 0,-1.12l-2.28 -2.28c-0.05,0.06 -0.11,0.12 -0.17,0.19 -0.39,0.44 -1.74,0.65 -3.1,0.88l-0.72 0.12 -6.73 1.13c-0.44,0.07 -0.73,0.12 -0.66,0.48l0.38 1.31c-0.78,0 -2.9,-0.12 -3.43,-1.27 -0.2,-0.43 -0.52,-0.97 0.2,-1.22 0.65,-0.23 1.45,-0.44 2.32,-0.63 3.24,-0.7 7.37,-1.11 8.36,-1.29l0.57 -1.91c-0.23,0.04 -0.46,0.07 -0.7,0.1zm-2.3 9.99l-2.78 1.08c-0.42,0.16 -0.73,0.12 -0.66,0.48l0.43 1.47c-0.57,-0.24 -1.23,-0.52 -1.76,-1.67 -0.2,-0.44 -0.5,-0.93 0.2,-1.22 0.23,-0.1 0.44,-0.18 0.63,-0.26 2.36,-0.94 2.43,-0.65 4.39,-1.4l0.48 -1.62c0.12,0.03 1.1,0.16 1.33,0.23 0.68,0.22 0.91,0.34 0.45,1.05 -0.17,0.27 -0.32,0.49 -0.69,0.91 -0.4,0.45 -0.64,0.42 -1.93,0.91l-0.09 0.04zm1 -3.36c-0.08,0.01 -0.17,0.03 -0.25,0.05l-4.5 1.12c-0.43,0.1 -0.72,0.12 -0.66,0.48l0.38 1.29c-0.78,0 -1.98,-0.23 -2.51,-1.38 -0.2,-0.43 -0.52,-0.97 0.2,-1.22 0.47,-0.16 0.94,-0.31 1.42,-0.44 2.69,-0.76 5.4,-1.07 6.35,-1.35l0.51 -1.73c0.13,0.03 1.93,0.32 2.16,0.39 0.67,0.23 0.91,0.34 0.45,1.05 -0.17,0.27 -0.32,0.49 -0.7,0.91 -0.36,0.42 -1.59,0.54 -2.85,0.83z"/>
   </g>
   <path class="fil2" d="M27.83 9.92l0 -1.24 3.63 0 0 -1.34 -5.12 0 0 6.96 3.02 0c1.37,0 2.66,-0.46 2.66,-2.19 0,-1.72 -1.29,-2.19 -2.66,-2.19l-1.53 0zm0 3.07l0 -1.75 1.54 0c0.59,0 1.13,0.13 1.13,0.87 0,0.75 -0.54,0.88 -1.13,0.88l-1.54 0zm8.6 -0.28l2.52 -5.37 -1.64 0 -1.52 3.58 -1.83 -3.58 -1.65 0 2.77 4.92 -0.11 0.25c-0.25,0.52 -0.62,0.62 -1.08,0.62 -0.28,0 -0.56,-0.05 -0.8,-0.12l0 1.26c0.35,0.1 0.71,0.17 1.05,0.17 0.89,0 1.65,-0.38 2.29,-1.73zm3.24 -5.37l0 6.96 1.49 0 0 -2.29 1.13 0c1.68,0 3,-0.54 3,-2.33 0,-1.8 -1.32,-2.34 -3,-2.34l-2.62 0zm4.1 2.34c0,0.81 -0.64,1.02 -1.41,1.02l-1.2 0 0 -2.05 1.2 0c0.77,0 1.41,0.2 1.41,1.03z"/>
   <path class="fil3" d="M52.44 7.34l-2.38 3.62 -2.38 -3.62 -1.38 0 0 6.96 1.49 0 0 -4.3 1.84 2.81 0.86 0 1.84 -2.8 0 4.29 1.49 0 0 -6.96 -1.38 0zm2.48 3.48c0,1.89 1.23,3.62 3.7,3.62 2.46,0 3.7,-1.73 3.7,-3.62 0,-1.89 -1.24,-3.62 -3.7,-3.62 -2.47,0 -3.7,1.73 -3.7,3.62zm5.87 0c0,1.22 -0.73,2.23 -2.17,2.23 -1.45,0 -2.18,-1.01 -2.18,-2.23 0,-1.22 0.73,-2.24 2.18,-2.24 1.44,0 2.17,1.02 2.17,2.24zm7.24 -3.48l0 2.8 -3.12 0 0 -2.8 -1.49 0 0 6.96 1.49 0 0 -2.81 3.12 0 0 2.81 1.49 0 0 -6.96 -1.49 0zm2.37 0l0 1.34 2.13 0 0 5.62 1.48 0 0 -5.62 2.14 0 0 -1.34 -5.75 0zm6.67 6.96l0.51 -1.3 3.18 0 0.51 1.3 1.54 0 -2.83 -6.96 -1.61 0 -2.84 6.96 1.54 0zm1.94 -5.03c0.06,-0.14 0.11,-0.28 0.16,-0.55 0.05,0.27 0.1,0.41 0.15,0.55l0.98 2.49 -2.25 0 0.96 -2.49zm5.53 5.03l1.64 -2.85 0.82 0 0 2.85 1.5 0 0 -2.85 0.82 0 1.64 2.85 1.66 0 -2.09 -3.57 1.95 -3.39 -1.66 0 -1.49 2.76 -0.83 0 0 -2.76 -1.5 0 0 2.76 -0.83 0 -1.49 -2.76 -1.66 0 1.94 3.39 -2.08 3.57 1.66 0z"/>
  </g>
 </g>
</svg>
